name analog
datacolumns 19
datarows 52
range 0.34800000000000003 0.3735
endheader
time	ground_force_vx	ground_force_vy	ground_force_vz	ground_force_px	ground_force_py	ground_force_pz	l_ground_force_vx	l_ground_force_vy	l_ground_force_vz	l_ground_force_px	l_ground_force_py	l_ground_force_pz	ground_torque_x	ground_torque_y	ground_torque_z	l_ground_torque_x	l_ground_torque_y	l_ground_torque_z
0.34800000000000003	-0.0	-0.0	-0.0	76.44617462158203	23.217266082763672	-688.8440551757812	83.53526306152344	-9.008811950683594	-664.4136352539062	-0.0	-0.0	-0.0	-0.0	-0.0	-0.0	167168.5	15447.4140625	16154.5634765625
0.34850000000000003	-0.0	-0.0	-0.0	80.64854431152344	26.12718772888184	-710.37841796875	86.81741333007812	-9.68186378479004	-695.0537109375	-0.0	-0.0	-0.0	-0.0	-0.0	-0.0	174231.671875	17217.54296875	16590.37890625
0.34900000000000003	-0.0	-0.0	-0.0	82.30760955810547	29.45856094360352	-732.0162353515625	89.6680679321289	-11.22898292541504	-719.9255981445312	-0.0	-0.0	-0.0	-0.0	-0.0	-0.0	180970.15625	19575.828125	17096.2265625
0.34950000000000003	-0.0	-0.0	-0.0	82.35144805908203	32.13554763793945	-747.421875	92.58307647705078	-13.75675106048584	-745.89306640625	-0.0	-0.0	-0.0	-0.0	-0.0	-0.0	186869.25	22306.533203125	17538.505859375
0.35000000000000003	-0.0	-0.0	-0.0	83.5566177368164	36.06565475463867	-762.920654296875	94.2444305419922	-18.0654239654541	-767.2750244140625	-0.0	-0.0	-0.0	-0.0	-0.0	-0.0	191718.6875	26030.658203125	17656.412109375
0.35050000000000003	-0.0	-0.0	-0.0	83.59025573730469	39.531036376953125	-777.5278930664062	93.3789291381836	-23.85320854187012	-788.695068359375	-0.0	-0.0	-0.0	-0.0	-0.0	-0.0	195600.765625	29849.294921875	17109.224609375
0.35100000000000003	-0.0	-0.0	-0.0	83.41183471679688	43.0949592590332	-791.430908203125	89.40870666503906	-30.916210174560547	-805.8490600585938	-0.0	-0.0	-0.0	-0.0	-0.0	-0.0	198272.765625	34534.49609375	15773.1318359375
0.35150000000000003	-0.0	-0.0	-0.0	82.12864685058594	46.270782470703125	-802.602783203125	82.94129180908203	-38.41156005859375	-818.6353149414062	-0.0	-0.0	-0.0	-0.0	-0.0	-0.0	200370.265625	39881.92578125	13897.873046875
0.352	-0.0	-0.0	-0.0	79.10713958740234	50.02473068237305	-813.1112060546875	75.51204681396484	-46.22819900512695	-831.6844482421875	-0.0	-0.0	-0.0	-0.0	-0.0	-0.0	202305.203125	44811.4765625	11658.1904296875
0.3525	-0.0	-0.0	-0.0	75.1485595703125	54.703880310058594	-824.322265625	68.43882751464844	-53.99882507324219	-843.4640502929688	-0.0	-0.0	-0.0	-0.0	-0.0	-0.0	203172.703125	49883.484375	9578.7607421875
0.353	-0.0	-0.0	-0.0	70.53226470947266	59.694969177246094	-829.5313110351562	62.02898025512695	-61.26382064819336	-851.2352294921875	-0.0	-0.0	-0.0	-0.0	-0.0	-0.0	204239.390625	55071.59375	7670.10888671875
0.3535	-0.0	-0.0	-0.0	64.73423767089844	64.31837463378906	-833.7691650390625	54.93281173706055	-68.99169158935547	-861.8819580078125	-0.0	-0.0	-0.0	-0.0	-0.0	-0.0	205012.84375	59851.8046875	5553.38916015625
0.354	-0.0	-0.0	-0.0	59.594051361083984	69.17607116699219	-838.2308959960938	47.22686767578125	-75.39385223388672	-869.8247680664062	-0.0	-0.0	-0.0	-0.0	-0.0	-0.0	205521.15625	64480.8203125	3065.897705078125
0.3545	-0.0	-0.0	-0.0	53.7949104309082	72.97528076171875	-839.0196533203125	39.25444412231445	-81.60926818847656	-877.8545532226562	-0.0	-0.0	-0.0	-0.0	-0.0	-0.0	206390.28125	69495.28125	307.520751953125
0.355	-0.0	-0.0	-0.0	48.47700500488281	76.35028839111328	-842.3765258789062	31.41520881652832	-86.44461059570312	-886.9325561523438	-0.0	-0.0	-0.0	-0.0	-0.0	-0.0	207192.328125	73841.2265625	-2213.109375
0.3555	-0.0	-0.0	-0.0	42.14364242553711	79.23542785644531	-844.668701171875	23.054903030395508	-91.82050323486328	-892.1681518554688	-0.0	-0.0	-0.0	-0.0	-0.0	-0.0	207262.140625	77786.6875	-4838.01708984375
0.356	-0.0	-0.0	-0.0	36.18987655639648	82.98905181884766	-846.2606201171875	15.65866756439209	-96.57855224609376	-897.6688232421875	-0.0	-0.0	-0.0	-0.0	-0.0	-0.0	207323.09375	81952.7265625	-7365.9287109375
0.3565	-0.0	-0.0	-0.0	29.7006778717041	86.3653793334961	-846.88427734375	8.339795112609863	-100.8293914794922	-900.937744140625	-0.0	-0.0	-0.0	-0.0	-0.0	-0.0	207221.71875	85075.5234375	-9693.4140625
0.357	-0.0	-0.0	-0.0	23.556177139282227	89.9405517578125	-846.572265625	3.017456531524658	-104.29607391357422	-906.2205200195312	-0.0	-0.0	-0.0	-0.0	-0.0	-0.0	207747.203125	88221.5	-11496.3740234375
0.3575	-0.0	-0.0	-0.0	16.90930938720703	93.23795318603516	-845.6036376953125	-1.283908128738403	-106.8676528930664	-910.717529296875	-0.0	-0.0	-0.0	-0.0	-0.0	-0.0	208552.71875	90253.25	-12845.8955078125
0.358	-0.0	-0.0	-0.0	10.896574020385742	96.0007553100586	-845.5637817382812	-3.614521980285645	-109.14132690429688	-915.995849609375	-0.0	-0.0	-0.0	-0.0	-0.0	-0.0	209416.109375	92256.28125	-14013.1064453125
0.3585	-0.0	-0.0	-0.0	5.0450358390808105	98.46294403076172	-844.4927978515625	-5.510377883911133	-110.96282958984376	-919.7465209960938	-0.0	-0.0	-0.0	-0.0	-0.0	-0.0	209807.984375	93832.4140625	-14556.4462890625
0.359	-0.0	-0.0	-0.0	-0.3071286082267761	100.28157043457033	-845.6435546875	-7.57099723815918	-112.12081146240234	-921.6399536132812	-0.0	-0.0	-0.0	-0.0	-0.0	-0.0	210146.640625	94737.5859375	-15283.791015625
0.3595	-0.0	-0.0	-0.0	-5.372284412384033	102.35468292236328	-844.714599609375	-12.660323143005373	-113.42774963378906	-920.5830688476562	-0.0	-0.0	-0.0	-0.0	-0.0	-0.0	209889.90625	95772.234375	-16645.4453125
0.36	-0.0	-0.0	-0.0	-7.978577136993408	103.34478759765624	-845.4591064453125	-17.926786422729492	-113.99053192138672	-917.142333984375	-0.0	-0.0	-0.0	-0.0	-0.0	-0.0	209102.078125	96656.7265625	-18287.5
0.3605	-0.0	-0.0	-0.0	-11.410638809204102	104.5403823852539	-846.9634399414062	-24.42207908630371	-114.1116180419922	-913.082763671875	-0.0	-0.0	-0.0	-0.0	-0.0	-0.0	208162.453125	97293.828125	-19960.869140625
0.361	-0.0	-0.0	-0.0	-16.35931396484375	105.92932891845705	-849.0274047851562	-30.210918426513672	-113.57188415527344	-906.3975830078124	-0.0	-0.0	-0.0	-0.0	-0.0	-0.0	206682.78125	97743.328125	-21418.32421875
0.3615	-0.0	-0.0	-0.0	-20.119428634643555	106.29509735107422	-850.3643798828125	-35.855018615722656	-113.4280242919922	-901.65283203125	-0.0	-0.0	-0.0	-0.0	-0.0	-0.0	205732.59375	98324.1328125	-22794.44921875
0.362	-0.0	-0.0	-0.0	-24.20888328552246	104.88790893554688	-853.339111328125	-41.27937316894531	-113.38198852539062	-897.190673828125	-0.0	-0.0	-0.0	-0.0	-0.0	-0.0	204788.34375	98800.765625	-24139.51953125
0.3625	-0.0	-0.0	-0.0	-26.790748596191406	102.90364837646484	-852.5921630859375	-47.38642883300781	-113.4892120361328	-895.8316040039062	-0.0	-0.0	-0.0	-0.0	-0.0	-0.0	204213.484375	99531.2578125	-25672.146484375
0.363	-0.0	-0.0	-0.0	-28.8751163482666	101.25213623046876	-853.542236328125	-52.89994812011719	-113.71199035644533	-895.00439453125	-0.0	-0.0	-0.0	-0.0	-0.0	-0.0	204075.890625	100190.703125	-27215.4140625
0.3635	-0.0	-0.0	-0.0	-31.67298889160156	101.40667724609376	-853.7071533203125	-58.03549957275391	-113.92100524902344	-893.6443481445312	-0.0	-0.0	-0.0	-0.0	-0.0	-0.0	203805.0	101078.7734375	-28357.205078125
0.364	-0.0	-0.0	-0.0	-36.04387664794922	103.10895538330078	-853.21240234375	-61.98039245605469	-114.45574188232422	-895.0040893554688	-0.0	-0.0	-0.0	-0.0	-0.0	-0.0	204207.265625	101779.546875	-29312.3828125
0.3645	-0.0	-0.0	-0.0	-40.97407913208008	105.20030212402344	-854.3073120117188	-65.99563598632812	-115.08316040039062	-898.8805541992188	-0.0	-0.0	-0.0	-0.0	-0.0	-0.0	204630.125	102712.5625	-30231.853515625
0.365	-0.0	-0.0	-0.0	-44.54868316650391	107.91300964355467	-854.3078002929688	-70.2624740600586	-115.8366241455078	-902.8133544921876	-0.0	-0.0	-0.0	-0.0	-0.0	-0.0	205699.6875	103429.640625	-31257.48046875
0.3655	-0.0	-0.0	-0.0	-47.753379821777344	111.57759857177734	-854.3762817382812	-74.57633209228516	-116.07244110107422	-908.1784057617188	-0.0	-0.0	-0.0	-0.0	-0.0	-0.0	206508.671875	104429.453125	-32258.16015625
0.366	-0.0	-0.0	-0.0	-52.0438117980957	115.19905090332033	-857.010986328125	-79.81005859375	-117.03504180908205	-913.380615234375	-0.0	-0.0	-0.0	-0.0	-0.0	-0.0	207478.75	105494.8125	-33426.8671875
0.3665	-0.0	-0.0	-0.0	-57.47677993774414	119.28899383544922	-857.6829833984375	-84.98738861083984	-117.41185760498048	-918.5587768554688	-0.0	-0.0	-0.0	-0.0	-0.0	-0.0	208378.953125	106516.6328125	-34449.98046875
0.367	-0.0	-0.0	-0.0	-62.71564102172852	122.78987884521484	-857.359375	-90.1732406616211	-117.97405242919922	-923.0371704101562	-0.0	-0.0	-0.0	-0.0	-0.0	-0.0	209462.90625	107208.5078125	-35476.0078125
0.3675	-0.0	-0.0	-0.0	-69.39025115966797	126.11952209472656	-857.4575805664062	-95.43749237060548	-118.64830780029295	-926.205322265625	-0.0	-0.0	-0.0	-0.0	-0.0	-0.0	209995.0	108166.7265625	-36636.72265625
0.368	-0.0	-0.0	-0.0	-75.65863800048828	128.9716796875	-855.36962890625	-100.09107971191406	-118.93707275390624	-927.1859741210938	-0.0	-0.0	-0.0	-0.0	-0.0	-0.0	210221.0625	108433.125	-37686.1875
0.3685	-0.0	-0.0	-0.0	-82.1705093383789	131.23233032226562	-850.007568359375	-105.42169189453124	-119.18643951416016	-928.1395263671876	-0.0	-0.0	-0.0	-0.0	-0.0	-0.0	209905.375	108963.2421875	-38469.19921875
0.369	-0.0	-0.0	-0.0	-89.20989990234375	132.95814514160156	-844.9345703125	-109.68865966796876	-117.4266586303711	-921.8519287109376	-0.0	-0.0	-0.0	-0.0	-0.0	-0.0	208482.65625	108366.34375	-39008.45703125
0.3695	-0.0	-0.0	-0.0	-96.79236602783205	133.354736328125	-835.8839721679688	-115.37161254882812	-116.20832824707033	-917.2186279296876	-0.0	-0.0	-0.0	-0.0	-0.0	-0.0	207541.65625	108283.3046875	-39847.97265625
0.37	-0.0	-0.0	-0.0	-104.27644348144533	133.12083435058594	-821.952880859375	-117.04999542236328	-114.72978973388672	-903.0650024414062	-0.0	-0.0	-0.0	-0.0	-0.0	-0.0	203963.578125	106970.765625	-39937.69140625
0.3705	-0.0	-0.0	-0.0	-110.23008728027344	131.93763732910156	-801.0567016601562	-118.93777465820312	-110.35377502441406	-885.98876953125	-0.0	-0.0	-0.0	-0.0	-0.0	-0.0	200013.03125	105593.0546875	-39740.97265625
0.371	-0.0	-0.0	-0.0	-114.56888580322266	128.99851989746094	-775.404296875	-120.4056167602539	-107.60003662109376	-862.410400390625	-0.0	-0.0	-0.0	-0.0	-0.0	-0.0	194178.640625	103274.4375	-39886.93359375
0.3715	-0.0	-0.0	-0.0	-117.47286224365234	123.35162353515624	-741.6981201171875	-119.11652374267578	-101.659423828125	-827.49853515625	-0.0	-0.0	-0.0	-0.0	-0.0	-0.0	186054.734375	100085.328125	-38722.37109375
0.372	-0.0	-0.0	-0.0	-117.31481170654295	114.71083068847656	-698.20263671875	-114.18319702148438	-94.4418487548828	-784.8153076171875	-0.0	-0.0	-0.0	-0.0	-0.0	-0.0	175556.1875	95339.9453125	-36919.3359375
0.3725	-0.0	-0.0	-0.0	-110.62747192382812	104.92737579345705	-641.3143920898438	-106.75665283203124	-85.69074249267578	-727.5272827148438	-0.0	-0.0	-0.0	-0.0	-0.0	-0.0	162622.203125	89523.0625	-34355.2109375
0.373	-0.0	-0.0	-0.0	-95.2200927734375	89.45867156982422	-568.5929565429688	-94.81624603271484	-73.40947723388672	-657.9046630859375	-0.0	-0.0	-0.0	-0.0	-0.0	-0.0	145949.796875	81870.1796875	-30534.3671875
0.3735	-0.0	-0.0	-0.0	-72.40917205810547	64.50475311279297	-471.7744140625	-78.4063720703125	-56.23240661621094	-567.269287109375	-0.0	-0.0	-0.0	-0.0	-0.0	-0.0	125392.4765625	71946.8359375	-25064.8046875
